<svg width="245" height="144" viewBox="0 0 245 144" fill="none" xmlns="http://www.w3.org/2000/svg">
<g clip-path="url(#clip0_817_1571)">
<path d="M77.1911 143.523C77.1763 143.458 75.7462 136.953 78.6668 131.55C81.5874 126.148 87.8217 123.765 87.8843 123.741L88.1692 123.635L88.2366 123.931C88.2513 123.996 89.6814 130.501 86.7608 135.904C83.8404 141.306 77.606 143.689 77.5433 143.713L77.2583 143.819L77.1911 143.523ZM87.7785 124.358C86.5297 124.894 81.6012 127.239 79.1345 131.802C76.6675 136.365 77.4118 141.762 77.6492 143.096C78.8974 142.562 83.824 140.22 86.2932 135.652C88.76 131.089 88.016 125.693 87.7785 124.358Z" fill="#F1F1F1"/>
<path d="M84.5276 134.009C79.2792 137.158 77.2578 143.415 77.2578 143.415C77.2578 143.415 83.7459 144.564 88.9944 141.415C94.2428 138.265 96.2642 132.008 96.2642 132.008C96.2642 132.008 89.7761 130.859 84.5276 134.009Z" fill="#F1F1F1"/>
<path d="M70 94H85V87H70V94Z" fill="#DE6335"/>
<path d="M73.3779 87.4444C73.4154 87.1393 73.3854 86.8297 73.2899 86.5374C73.1945 86.2451 73.0359 85.9773 72.8255 85.7527C72.615 85.5281 72.3578 85.3523 72.0718 85.2377C71.7859 85.123 71.4782 85.0723 71.1705 85.0891L69.0845 80.7578L66.1367 81.3803L69.1686 87.4556C69.2312 87.9694 69.4805 88.4425 69.8693 88.7852C70.2581 89.1279 70.7594 89.3164 71.2783 89.315C71.7971 89.3136 72.2974 89.1224 72.6844 88.7777C73.0714 88.4329 73.3181 87.9586 73.3779 87.4444H73.3779Z" fill="#FFB7B7"/>
<path d="M28.0938 137.732L30.5471 138.984L36.5577 130.14L32.9365 128.292L28.0938 137.732Z" fill="#FFB7B7"/>
<path d="M27.877 136.614L32.7087 139.081L32.7089 139.081C33.5255 139.498 34.1426 140.221 34.4245 141.092C34.7064 141.963 34.6301 142.91 34.2122 143.724L34.161 143.824L26.25 139.786L27.877 136.614Z" fill="#2F2E41"/>
<path d="M56.4302 141.159L59.1861 141.159L60.4974 130.555H56.4297L56.4302 141.159Z" fill="#FFB7B7"/>
<path d="M55.7266 140.261L61.1543 140.261H61.1545C62.0718 140.261 62.9516 140.624 63.6003 141.271C64.2489 141.918 64.6134 142.796 64.6135 143.711V143.823L55.7267 143.823L55.7266 140.261Z" fill="#2F2E41"/>
<path d="M43.5354 54.6628C43.5354 54.6628 41.6898 53.2523 41.6898 56.6976L41.3984 68.0828L44.6525 78.8382L46.5467 75.3499L45.7696 67.7921L43.5354 54.6628Z" fill="#2F2E41"/>
<path d="M63.2783 85.8035C63.2783 85.8035 65.4185 96.2001 62.7076 104.732L61.2095 137.538L55.7164 137.111L53.7903 112.774L51.9355 100.676L48.0832 111.706L35.3849 135.047L29.5352 130.493C29.5352 130.493 36.0176 112.849 40.8067 109.144L43.2085 81.8564L63.2783 85.8035Z" fill="#2F2E41"/>
<path d="M56.7672 40.763C60.2263 40.763 63.0305 37.9658 63.0305 34.5153C63.0305 31.0648 60.2263 28.2676 56.7672 28.2676C53.3081 28.2676 50.5039 31.0648 50.5039 34.5153C50.5039 37.9658 53.3081 40.763 56.7672 40.763Z" fill="#FFB8B8"/>
<path d="M56.3244 35.8408C57.0752 35.9383 57.6415 35.172 57.9042 34.4636C58.1669 33.7553 58.367 32.9306 59.0198 32.548C59.9117 32.0252 61.0527 32.654 62.0726 32.4815C63.2243 32.2867 63.9732 31.0692 64.0318 29.9054C64.0905 28.7416 63.6262 27.6222 63.1707 26.5492L63.0117 27.8827C63.0329 27.4308 62.9376 26.9809 62.7347 26.5762C62.5319 26.1715 62.2284 25.8255 61.8532 25.5713L62.0582 27.528C62.0145 27.258 61.9179 26.9993 61.7738 26.7667C61.6297 26.5341 61.441 26.3322 61.2184 26.1725C60.9959 26.0129 60.7439 25.8986 60.477 25.8363C60.2101 25.774 59.9335 25.7649 59.663 25.8096L59.6953 26.9754C58.365 26.8177 57.0232 26.6596 55.689 26.7799C54.3548 26.9001 53.0112 27.3211 52 28.1976C50.4874 29.5087 49.935 31.6676 50.1205 33.6579C50.3059 35.6482 51.1296 37.5179 51.988 39.3241C52.204 39.7786 52.5027 40.2914 53.0035 40.3493C53.2306 40.3524 53.4523 40.2802 53.6336 40.1438C53.815 40.0075 53.9457 39.8149 54.0052 39.5962C54.113 39.1553 54.1088 38.6944 53.993 38.2554C53.8665 37.5846 53.7069 36.8989 53.8259 36.2266C53.9449 35.5544 54.4297 34.8901 55.1091 34.8077C55.7884 34.7253 56.4835 35.4999 56.1569 36.0998L56.3244 35.8408Z" fill="#2F2E41"/>
<path d="M63.6647 88.5837L42.7578 87.2384L44.3312 80.7354L63.4398 84.9959L63.6647 88.5837Z" fill="#CBCBCB"/>
<path d="M50.7728 43.0358L52.0842 41.2197C52.0842 41.2197 53.5499 41.7166 57.4753 43.6656L57.7526 45.3671L64.5662 87.1716L52.1813 86.6387L48.8086 86.5671L47.7049 84.0992L46.3439 86.5148L43.0504 86.4449L39.6992 84.507L43.0019 74.4299L44.0704 65.2248L42.419 56.5527C42.419 56.5527 40.3411 48.5893 48.3444 44.2955L50.7728 43.0358Z" fill="#2F2E41"/>
<path d="M67.9375 85.2207L68.3872 86.7904L71.5343 84.7459L70.3468 83.3896L67.9375 85.2207Z" fill="#CBCBCB"/>
<path d="M53.1172 48.0883C53.1172 48.0883 57.9959 41.8754 60.9446 48.7999L61.8742 56.0565C61.8742 56.0565 65.4464 65.0764 65.5538 68.7259C65.5538 68.7259 67.9756 73.4887 67.9534 75.9904L71.536 84.081L67.8615 86.3566L57.6919 70.8026L53.1172 48.0883Z" fill="#2F2E41"/>
<path d="M101.46 144H0.265603C0.19516 144 0.127603 143.972 0.077793 143.922C0.0279829 143.872 0 143.805 0 143.735C0 143.664 0.0279829 143.597 0.077793 143.547C0.127603 143.498 0.19516 143.47 0.265603 143.47H101.46C101.531 143.47 101.598 143.498 101.648 143.547C101.698 143.597 101.726 143.664 101.726 143.735C101.726 143.805 101.698 143.872 101.648 143.922C101.598 143.972 101.531 144 101.46 144Z" fill="#CBCBCB"/>
<path d="M121.797 62.7121H243.991V1.00586H121.797V62.7121Z" fill="white"/>
<path d="M244.999 63.7172H120.789V0H244.999V63.7172ZM122.805 61.7063H242.983V2.01097H122.805V61.7063Z" fill="#E5E5E5"/>
<path d="M219.53 12.2432H196.508V51.4747H219.53V12.2432Z" fill="#E5E5E5"/>
<path d="M192.694 12.2422H146.258V23.0411H192.694V12.2422Z" fill="#DE6335"/>
<path d="M192.694 26.0488H146.258V37.6679H192.694V26.0488Z" fill="#E5E5E5"/>
<path d="M192.694 40.6748H146.258V51.4737H192.694V40.6748Z" fill="#E5E5E5"/>
</g>
<defs>
<clipPath id="clip0_817_1571">
<rect width="245" height="144" fill="white"/>
</clipPath>
</defs>
</svg>
