<?xml version="1.0" standalone="no"?>
<!DOCTYPE svg PUBLIC "-//W3C//DTD SVG 20010904//EN"
 "http://www.w3.org/TR/2001/REC-SVG-20010904/DTD/svg10.dtd">
<svg version="1.0" xmlns="http://www.w3.org/2000/svg"
 width="18.000000pt" height="20.000000pt" viewBox="0 0 18.000000 20.000000"
 preserveAspectRatio="xMidYMid meet">

<g transform="translate(0.000000,20.000000) scale(0.100000,-0.100000)"
fill="#515151" stroke="none">
<path d="M40 190 c0 -5 -9 -10 -20 -10 -19 0 -20 -7 -20 -90 l0 -90 90 0 90 0
0 90 c0 83 -1 90 -20 90 -11 0 -20 5 -20 10 0 6 -22 10 -50 10 -27 0 -50 -4
-50 -10z m80 -20 c0 -5 -13 -10 -30 -10 -16 0 -30 5 -30 10 0 6 14 10 30 10
17 0 30 -4 30 -10z m-80 -20 c0 -5 23 -10 50 -10 28 0 50 5 50 10 0 6 5 10 10
10 6 0 10 -30 10 -70 l0 -70 -70 0 -70 0 0 70 c0 40 4 70 10 70 6 0 10 -4 10
-10z"/>
</g>
</svg>
