<?xml version="1.0" standalone="no"?>
<!DOCTYPE svg PUBLIC "-//W3C//DTD SVG 20010904//EN"
 "http://www.w3.org/TR/2001/REC-SVG-20010904/DTD/svg10.dtd">
<svg version="1.0" xmlns="http://www.w3.org/2000/svg"
 width="23.000000pt" height="20.000000pt" viewBox="0 0 23.000000 20.000000"
 preserveAspectRatio="xMidYMid meet">

<g transform="translate(0.000000,20.000000) scale(0.100000,-0.100000)"
fill="#515151" stroke="none">
<path d="M20 168 c-13 -21 -18 -40 -14 -53 4 -11 8 -41 8 -67 l1 -48 95 0 95
0 1 48 c0 26 4 56 8 67 4 13 -1 32 -14 53 -19 31 -21 32 -90 32 -69 0 -71 -1
-90 -32z m170 -19 c16 -39 1 -61 -30 -41 -12 7 -21 8 -25 2 -8 -14 -42 -13
-47 1 -3 8 -10 8 -26 -2 -33 -20 -49 0 -32 40 12 30 14 31 80 31 66 0 68 -1
80 -31z m-17 -68 c4 0 7 -14 7 -31 l0 -30 -70 0 -70 0 0 29 c0 16 6 31 13 34
10 3 94 2 120 -2z"/>
</g>
</svg>
