<?xml version="1.0" standalone="no"?>
<!DOCTYPE svg PUBLIC "-//W3C//DTD SVG 20010904//EN"
 "http://www.w3.org/TR/2001/REC-SVG-20010904/DTD/svg10.dtd">
<svg version="1.0" xmlns="http://www.w3.org/2000/svg"
 width="34.000000pt" height="24.000000pt" viewBox="0 0 34.000000 24.000000"
 preserveAspectRatio="xMidYMid meet">

<g transform="translate(0.000000,24.000000) scale(0.100000,-0.100000)"
fill="#D13D48" stroke="none">
<path d="M12 228 c-16 -16 -16 -140 0 -156 8 -8 51 -12 130 -12 135 0 138 2
138 90 0 88 -3 90 -138 90 -79 0 -122 -4 -130 -12z m238 -78 l0 -60 -110 0
-110 0 0 60 0 60 110 0 110 0 0 -60z"/>
<path d="M104 176 c-3 -8 -4 -25 -2 -38 2 -18 9 -23 32 -23 36 0 56 27 40 53
-14 22 -62 28 -70 8z"/>
<path d="M310 110 l0 -80 -130 0 c-109 0 -130 -2 -130 -15 0 -13 21 -15 133
-15 90 0 137 4 145 12 7 7 12 44 12 95 0 67 -3 83 -15 83 -12 0 -15 -16 -15
-80z"/>
</g>
</svg>
