<svg width="247" height="140" viewBox="0 0 247 140" fill="none" xmlns="http://www.w3.org/2000/svg">
<g clip-path="url(#clip0_817_1535)">
<path d="M15.5375 29.345C12.4645 29.345 9.46047 28.4845 6.90534 26.8722C4.35021 25.26 2.35873 22.9685 1.18273 20.2874C0.00673218 17.6064 -0.300962 14.6562 0.298556 11.81C0.898074 8.96385 2.37788 6.34946 4.55084 4.29748C6.7238 2.24549 9.49232 0.848076 12.5063 0.281934C15.5203 -0.284207 18.6443 0.00635738 21.4835 1.11688C24.3226 2.22741 26.7492 4.10802 28.4565 6.5209C30.1638 8.93378 31.075 11.7706 31.075 14.6725C31.0704 18.5625 29.4319 22.292 26.519 25.0427C23.6062 27.7933 19.6569 29.3406 15.5375 29.345ZM15.5375 0.611362C12.5925 0.611362 9.71368 1.43603 7.26501 2.98109C4.81635 4.52615 2.90784 6.7222 1.78085 9.29153C0.653849 11.8609 0.358977 14.6881 0.933515 17.4157C1.50805 20.1433 2.9262 22.6487 5.00861 24.6152C7.09103 26.5817 9.7442 27.9209 12.6326 28.4635C15.521 29.006 18.5149 28.7275 21.2357 27.6633C23.9565 26.599 26.282 24.7968 27.9182 22.4844C29.5543 20.1721 30.4276 17.4535 30.4276 14.6725C30.4231 10.9446 28.8529 7.3705 26.0615 4.73444C23.27 2.09838 19.4852 0.615587 15.5375 0.611362Z" fill="#F2F2F2"/>
<path d="M121.062 20.7858C119.525 20.7858 118.023 20.3555 116.746 19.5494C115.468 18.7433 114.472 17.5975 113.884 16.257C113.296 14.9165 113.142 13.4414 113.442 12.0183C113.742 10.5952 114.482 9.28801 115.568 8.26202C116.655 7.23603 118.039 6.53732 119.546 6.25425C121.053 5.97118 122.615 6.11646 124.035 6.67172C125.454 7.22699 126.668 8.16729 127.521 9.37373C128.375 10.5802 128.83 11.9986 128.83 13.4495C128.828 15.3945 128.009 17.2593 126.552 18.6346C125.096 20.0099 123.121 20.7836 121.062 20.7858ZM121.062 6.72464C119.653 6.72464 118.276 7.11905 117.105 7.85799C115.934 8.59693 115.021 9.64721 114.482 10.876C113.943 12.1048 113.802 13.457 114.077 14.7615C114.352 16.066 115.03 17.2642 116.026 18.2047C117.022 19.1452 118.291 19.7857 119.672 20.0452C121.054 20.3047 122.486 20.1715 123.787 19.6625C125.088 19.1535 126.2 18.2916 126.983 17.1857C127.765 16.0798 128.183 14.7796 128.183 13.4495C128.181 11.6666 127.43 9.95726 126.095 8.69654C124.76 7.43581 122.95 6.72665 121.062 6.72464Z" fill="#F2F2F2"/>
<path d="M175.767 56.5505C174.039 56.5505 172.349 56.0665 170.912 55.1596C169.474 54.2527 168.354 52.9637 167.693 51.4556C167.031 49.9475 166.858 48.2881 167.195 46.6871C167.533 45.0861 168.365 43.6155 169.587 42.4613C170.809 41.307 172.367 40.521 174.062 40.2025C175.757 39.8841 177.515 40.0475 179.112 40.6722C180.709 41.2969 182.074 42.3547 183.034 43.7119C183.994 45.0692 184.507 46.6649 184.507 48.2972C184.504 50.4854 183.583 52.5832 181.944 54.1304C180.306 55.6777 178.084 56.548 175.767 56.5505ZM175.767 40.6553C174.167 40.6553 172.602 41.1035 171.271 41.9432C169.94 42.7829 168.903 43.9764 168.291 45.3728C167.678 46.7692 167.518 48.3057 167.83 49.7881C168.142 51.2705 168.913 52.6321 170.045 53.7009C171.177 54.7696 172.619 55.4974 174.188 55.7923C175.758 56.0872 177.385 55.9358 178.864 55.3574C180.343 54.779 181.607 53.7996 182.496 52.5428C183.385 51.2861 183.86 49.8087 183.86 48.2972C183.857 46.2712 183.004 44.3287 181.487 42.8961C179.97 41.4634 177.913 40.6576 175.767 40.6553Z" fill="#F2F2F2"/>
<path d="M236.011 138.844H163.179C163.093 138.844 163.011 138.812 162.95 138.754C162.89 138.697 162.855 138.619 162.855 138.538C162.855 138.457 162.89 138.379 162.95 138.322C163.011 138.265 163.093 138.232 163.179 138.232H236.011C236.097 138.232 236.179 138.265 236.24 138.322C236.301 138.379 236.335 138.457 236.335 138.538C236.335 138.619 236.301 138.697 236.24 138.754C236.179 138.812 236.097 138.844 236.011 138.844Z" fill="#CCCCCC"/>
<path d="M196.802 45.6883C201.193 45.6883 204.752 42.327 204.752 38.1806C204.752 34.0342 201.193 30.6729 196.802 30.6729C192.411 30.6729 188.852 34.0342 188.852 38.1806C188.852 42.327 192.411 45.6883 196.802 45.6883Z" fill="#FFB8B8"/>
<path d="M197.629 127.333L193.871 128.538L187.16 115.425L192.706 113.646L197.629 127.333Z" fill="#FFB8B8"/>
<path d="M190.821 128.386L198.068 126.062L199.617 130.371L187.808 134.158C187.604 133.593 187.521 132.994 187.562 132.398C187.603 131.802 187.768 131.219 188.048 130.683C188.328 130.147 188.717 129.668 189.193 129.274C189.668 128.88 190.221 128.578 190.821 128.386Z" fill="#2F2E41"/>
<path d="M206.114 134.741L202.151 134.929L199.496 120.582L205.346 120.304L206.114 134.741Z" fill="#FFB8B8"/>
<path d="M199.266 133.993L206.91 133.63L207.152 138.175L194.695 138.767C194.663 138.17 194.756 137.573 194.969 137.01C195.181 136.447 195.509 135.929 195.934 135.486C196.358 135.043 196.871 134.683 197.443 134.427C198.014 134.171 198.634 134.023 199.266 133.993Z" fill="#2F2E41"/>
<path d="M182.531 87.0723C182.887 86.7734 183.168 86.4047 183.356 85.9919C183.545 85.5792 183.635 85.1325 183.62 84.6833C183.606 84.2341 183.487 83.7934 183.273 83.3922C183.059 82.991 182.754 82.639 182.38 82.3611L186.159 72.0371L180.335 73.4425L177.639 83.0309C177.186 83.6551 176.992 84.4144 177.092 85.165C177.193 85.9156 177.581 86.6053 178.184 87.1035C178.787 87.6016 179.563 87.8736 180.364 87.8678C181.165 87.8621 181.936 87.579 182.531 87.0723Z" fill="#FFB8B8"/>
<path d="M205.746 130.415C205.695 130.415 205.644 130.412 205.593 130.407L200.213 129.869C199.882 129.838 199.573 129.7 199.337 129.478C199.102 129.257 198.954 128.966 198.918 128.654L194.761 93.6514L191.752 103.23L197.361 122.054C197.418 122.246 197.431 122.447 197.397 122.644C197.364 122.84 197.286 123.028 197.169 123.193C197.051 123.359 196.897 123.498 196.717 123.602C196.537 123.705 196.335 123.771 196.125 123.793L190.672 124.385C190.325 124.422 189.975 124.339 189.686 124.154C189.398 123.968 189.189 123.69 189.098 123.372L183.139 102.188C183.09 102.014 183.077 101.832 183.103 101.653L185.781 82.6406L205.758 84.1533L207.202 128.997C207.208 129.181 207.175 129.365 207.104 129.536C207.034 129.708 206.927 129.865 206.792 129.997C206.656 130.129 206.493 130.234 206.314 130.306C206.134 130.378 205.941 130.415 205.746 130.415V130.415Z" fill="#2F2E41"/>
<path d="M198.838 87.4046C192.146 87.4046 184.568 84.9627 184.109 84.8127L183.977 84.7692L191.527 48.1846L191.666 48.1899C194.658 48.3046 202.823 48.3634 202.905 48.364L203.052 48.365L206.199 80.6502L206.762 85.3725L206.693 85.4252C204.768 86.8951 201.895 87.4046 198.838 87.4046Z" fill="#D13D48"/>
<path d="M186.75 84.2428L182.027 82.4464L184.434 54.9527C184.492 54.2749 184.711 53.618 185.073 53.0306C185.436 52.4431 185.934 51.9401 186.53 51.5586L189.015 49.9616C188.945 49.7358 188.932 49.4974 188.978 49.2662C189.024 49.0349 189.128 48.8172 189.281 48.6311C189.433 48.4449 189.63 48.2956 189.856 48.1953C190.081 48.095 190.329 48.0467 190.578 48.0543L191.289 48.0759C191.425 47.9897 191.584 47.9442 191.748 47.9453C191.911 47.9464 192.07 47.9941 192.204 48.082C192.338 48.17 192.44 48.2941 192.498 48.4382C192.556 48.5822 192.567 48.7394 192.528 48.8892L192.372 51.8021L186.75 84.2428Z" fill="#2F2E41"/>
<path d="M184.365 79.314L178.199 79.0688L180.197 66.9357L181.852 55.5191C181.884 55.1092 182.015 54.7115 182.233 54.3557C182.451 54 182.752 53.6954 183.112 53.4648C183.472 53.2342 183.883 53.0834 184.314 53.0239C184.745 52.9643 185.184 52.9975 185.599 53.1209C186.246 53.3125 186.801 53.713 187.166 54.2522C187.532 54.7914 187.685 55.4348 187.598 56.0697L185.921 68.4397L184.365 79.314Z" fill="#2F2E41"/>
<path d="M194.13 84.6634L194.088 84.5408C194.059 84.457 191.281 76.0395 195.93 65.9949L198.262 55.0438L200.254 48.1676C200.292 48.0447 200.359 47.9317 200.451 47.8376C200.542 47.7436 200.656 47.671 200.783 47.6256C200.931 47.577 201.092 47.5708 201.244 47.6078C201.397 47.6448 201.534 47.7233 201.64 47.8336C203.029 47.4487 204.522 47.5896 205.802 48.2267L208.601 49.6187C209.223 49.9282 209.719 50.424 210.011 51.0282C210.302 51.6324 210.374 52.311 210.213 52.9576L206.389 68.3707L208.248 82.7672L194.13 84.6634Z" fill="#2F2E41"/>
<path d="M198.202 78.7288C198.675 78.7773 199.154 78.7273 199.604 78.5823C200.055 78.4372 200.466 78.2007 200.809 77.8893C201.152 77.5779 201.419 77.1993 201.59 76.7801C201.762 76.3609 201.833 75.9113 201.801 75.463L210.462 69.4043L207.434 68.0488L198.095 72.5918C197.301 72.6933 196.574 73.0663 196.052 73.6401C195.53 74.2139 195.249 74.9487 195.262 75.7051C195.275 76.4616 195.582 77.1872 196.124 77.7445C196.666 78.3018 197.405 78.652 198.202 78.7289V78.7288Z" fill="#FFB8B8"/>
<path d="M203.632 76.0172L200.707 70.8607L207.921 66.3771L204.401 54.4527C204.26 53.9753 204.225 53.4755 204.297 52.9846C204.37 52.4938 204.549 52.0223 204.823 51.5998C205.098 51.1772 205.461 50.8126 205.891 50.5286C206.322 50.2447 206.809 50.0476 207.324 49.9496C208.233 49.7785 209.177 49.9248 209.981 50.3612C210.784 50.7977 211.393 51.4948 211.694 52.3229L216.444 65.5084C216.542 65.7801 216.547 66.0739 216.46 66.3487C216.372 66.6234 216.195 66.8654 215.955 67.0407L203.632 76.0172Z" fill="#2F2E41"/>
<path d="M197.36 39.7733C196.407 39.8904 195.688 38.9696 195.355 38.1184C195.021 37.2672 194.767 36.2762 193.939 35.8164C192.807 35.1882 191.358 35.9437 190.064 35.7365C188.602 35.5024 187.651 34.0393 187.577 32.6408C187.502 31.2423 188.092 29.8972 188.67 28.6078L188.872 30.2102C188.845 29.6671 188.966 29.1266 189.223 28.6402C189.481 28.1539 189.866 27.7381 190.342 27.4326L190.082 29.784C190.137 29.4596 190.26 29.1487 190.443 28.8691C190.626 28.5896 190.865 28.347 191.148 28.1551C191.43 27.9632 191.75 27.8259 192.089 27.7511C192.428 27.6762 192.779 27.6653 193.122 27.7189L193.081 29.12C194.77 28.9303 196.473 28.7405 198.167 28.8849C199.86 29.0294 201.566 29.5354 202.849 30.5886C204.769 32.1641 205.471 34.7584 205.235 37.1501C205 39.5418 203.954 41.7886 202.865 43.9591C202.591 44.5052 202.211 45.1214 201.576 45.191C201.004 45.2535 200.482 44.8026 200.304 44.2861C200.167 43.7562 200.173 43.2024 200.32 42.6749C200.48 41.8687 200.683 41.0447 200.532 40.2369C200.381 39.4291 199.765 38.6308 198.903 38.5318C198.041 38.4328 197.158 39.3636 197.573 40.0845L197.36 39.7733Z" fill="#2F2E41"/>
<path d="M104.009 123.364L100.914 122.134L98.7911 107.483H70.5193L68.2181 122.074L65.4494 123.381C65.3169 123.444 65.2107 123.547 65.1479 123.674C65.0851 123.8 65.0695 123.943 65.1035 124.079C65.1376 124.215 65.2193 124.337 65.3354 124.424C65.4515 124.51 65.5953 124.558 65.7434 124.558H103.754C103.906 124.558 104.053 124.508 104.17 124.417C104.288 124.326 104.368 124.2 104.398 124.06C104.428 123.919 104.406 123.773 104.335 123.646C104.264 123.52 104.149 123.42 104.009 123.364Z" fill="#E6E6E6"/>
<path d="M154.249 109.433H15.3703C14.6416 109.431 13.9434 109.157 13.4287 108.669C12.914 108.182 12.625 107.522 12.625 106.834V88.3408H156.994V106.834C156.994 107.522 156.705 108.182 156.191 108.669C155.676 109.157 154.978 109.431 154.249 109.433Z" fill="#CCCCCC"/>
<path d="M157.137 97.081H12.4961V17.9515C12.4971 17.1211 12.8469 16.3249 13.4687 15.7377C14.0906 15.1506 14.9336 14.8203 15.813 14.8193H153.82C154.7 14.8203 155.543 15.1506 156.165 15.7377C156.787 16.3249 157.136 17.1211 157.137 17.9515V97.081Z" fill="#3F3D56"/>
<path d="M148.499 91.3379H21.1352C20.4573 91.3372 19.8073 91.0826 19.3279 90.6299C18.8485 90.1772 18.5789 89.5634 18.5781 88.9232V22.9773C18.5789 22.3371 18.8485 21.7233 19.3279 21.2706C19.8073 20.8179 20.4573 20.5632 21.1352 20.5625H148.499C149.177 20.5632 149.827 20.8179 150.306 21.2706C150.785 21.7233 151.055 22.3371 151.056 22.9773V88.9232C151.055 89.5634 150.785 90.1772 150.306 90.6299C149.827 91.0826 149.177 91.3372 148.499 91.3379Z" fill="white"/>
<path d="M147.301 124.71H23.9721C23.8863 124.71 23.8039 124.678 23.7432 124.62C23.6825 124.563 23.6484 124.485 23.6484 124.404C23.6484 124.323 23.6825 124.245 23.7432 124.188C23.8039 124.131 23.8863 124.099 23.9721 124.099H147.301C147.387 124.099 147.469 124.131 147.53 124.188C147.591 124.245 147.625 124.323 147.625 124.404C147.625 124.485 147.591 124.563 147.53 124.62C147.469 124.678 147.387 124.71 147.301 124.71Z" fill="#CCCCCC"/>
<path d="M136.534 83.1446H33.101C33.0152 83.1446 32.9329 83.1123 32.8721 83.055C32.8114 82.9977 32.7773 82.9199 32.7773 82.8389V36.0235C32.7773 35.9424 32.8114 35.8646 32.8721 35.8073C32.9329 35.75 33.0152 35.7178 33.101 35.7178C33.1869 35.7178 33.2692 35.75 33.3299 35.8073C33.3906 35.8646 33.4247 35.9424 33.4247 36.0235V82.5332H136.534C136.62 82.5332 136.702 82.5654 136.763 82.6227C136.824 82.6801 136.858 82.7578 136.858 82.8389C136.858 82.9199 136.824 82.9977 136.763 83.055C136.702 83.1123 136.62 83.1446 136.534 83.1446Z" fill="#3F3D56"/>
<path d="M55.2006 79.7818H45.7929C45.5382 79.7816 45.294 79.6859 45.1138 79.5158C44.9337 79.3457 44.8323 79.1151 44.832 78.8745V66.628C44.8323 66.3875 44.9337 66.1568 45.1138 65.9867C45.294 65.8166 45.5382 65.721 45.7929 65.7207H55.2006C55.4553 65.721 55.6995 65.8166 55.8797 65.9867C56.0598 66.1568 56.1612 66.3875 56.1615 66.628V78.8745C56.1612 79.1151 56.0598 79.3457 55.8797 79.5158C55.6995 79.6859 55.4553 79.7816 55.2006 79.7818Z" fill="#D13D48"/>
<path d="M72.3568 79.7813H62.9492C62.6944 79.7811 62.4502 79.6854 62.2701 79.5153C62.0899 79.3452 61.9886 79.1146 61.9883 78.874V55.0118C61.9886 54.7713 62.0899 54.5406 62.2701 54.3705C62.4502 54.2004 62.6944 54.1048 62.9492 54.1045H72.3568C72.6116 54.1048 72.8558 54.2004 73.0359 54.3705C73.2161 54.5406 73.3174 54.7713 73.3177 55.0118V78.874C73.3174 79.1146 73.2161 79.3452 73.0359 79.5153C72.8558 79.6854 72.6116 79.7811 72.3568 79.7813Z" fill="#D13D48"/>
<path d="M89.5131 79.7818H80.1054C79.8507 79.7816 79.6065 79.6859 79.4263 79.5158C79.2462 79.3457 79.1448 79.1151 79.1445 78.8745V66.628C79.1448 66.3875 79.2462 66.1568 79.4263 65.9867C79.6065 65.8166 79.8507 65.721 80.1054 65.7207H89.5131C89.7678 65.721 90.012 65.8166 90.1922 65.9867C90.3723 66.1568 90.4737 66.3875 90.474 66.628V78.8745C90.4737 79.1151 90.3723 79.3457 90.1922 79.5158C90.012 79.6859 89.7678 79.7816 89.5131 79.7818Z" fill="#D13D48"/>
<path d="M106.669 79.7817H97.2617C97.0127 79.7868 96.7718 79.6985 96.5917 79.5361C96.4116 79.3738 96.307 79.1506 96.3008 78.9155V50.386C96.307 50.1509 96.4116 49.9277 96.5917 49.7654C96.7718 49.603 97.0127 49.5147 97.2617 49.5197H106.669C106.918 49.5147 107.159 49.603 107.339 49.7654C107.519 49.9277 107.624 50.1509 107.63 50.386V78.9155C107.624 79.1506 107.519 79.3738 107.339 79.5361C107.159 79.6985 106.918 79.7868 106.669 79.7817Z" fill="#D13D48"/>
<path d="M123.826 79.7819H114.418C114.163 79.7816 113.919 79.6859 113.739 79.5158C113.559 79.3458 113.457 79.1151 113.457 78.8746V42.1739C113.457 41.9334 113.559 41.7027 113.739 41.5326C113.919 41.3625 114.163 41.2669 114.418 41.2666H123.826C124.08 41.2669 124.325 41.3625 124.505 41.5326C124.685 41.7027 124.786 41.9334 124.786 42.1739V78.8746C124.786 79.1151 124.685 79.3458 124.505 79.5158C124.325 79.6859 124.08 79.7816 123.826 79.7819Z" fill="#D13D48"/>
<path d="M50.4969 62.0529C51.5695 62.0529 52.4391 61.2318 52.4391 60.2188C52.4391 59.2059 51.5695 58.3848 50.4969 58.3848C49.4242 58.3848 48.5547 59.2059 48.5547 60.2188C48.5547 61.2318 49.4242 62.0529 50.4969 62.0529Z" fill="#3F3D56"/>
<path d="M67.6531 50.131C68.7258 50.131 69.5953 49.3099 69.5953 48.297C69.5953 47.284 68.7258 46.4629 67.6531 46.4629C66.5805 46.4629 65.7109 47.284 65.7109 48.297C65.7109 49.3099 66.5805 50.131 67.6531 50.131Z" fill="#3F3D56"/>
<path d="M84.8094 62.0529C85.882 62.0529 86.7516 61.2318 86.7516 60.2188C86.7516 59.2059 85.882 58.3848 84.8094 58.3848C83.7367 58.3848 82.8672 59.2059 82.8672 60.2188C82.8672 61.2318 83.7367 62.0529 84.8094 62.0529Z" fill="#3F3D56"/>
<path d="M101.966 44.3234C103.038 44.3234 103.908 43.5023 103.908 42.4893C103.908 41.4764 103.038 40.6553 101.966 40.6553C100.893 40.6553 100.023 41.4764 100.023 42.4893C100.023 43.5023 100.893 44.3234 101.966 44.3234Z" fill="#3F3D56"/>
<path d="M119.122 37.5978C120.195 37.5978 121.064 36.7767 121.064 35.7637C121.064 34.7508 120.195 33.9297 119.122 33.9297C118.049 33.9297 117.18 34.7508 117.18 35.7637C117.18 36.7767 118.049 37.5978 119.122 37.5978Z" fill="#3F3D56"/>
<path d="M84.8478 60.6289L67.651 48.4654L50.6892 60.4626L50.3008 59.9735L67.651 47.7015L84.7662 59.8073L101.774 42.2314L101.842 42.2052L118.998 35.6777L119.24 36.2448L102.152 42.7462L84.8478 60.6289Z" fill="#3F3D56"/>
</g>
<defs>
<clipPath id="clip0_817_1535">
<rect width="247" height="140" fill="white"/>
</clipPath>
</defs>
</svg>
