<?xml version="1.0" standalone="no"?>
<!DOCTYPE svg PUBLIC "-//W3C//DTD SVG 20010904//EN"
 "http://www.w3.org/TR/2001/REC-SVG-20010904/DTD/svg10.dtd">
<svg version="1.0" xmlns="http://www.w3.org/2000/svg"
 width="20.000000pt" height="21.000000pt" viewBox="0 0 20.000000 21.000000"
 preserveAspectRatio="xMidYMid meet">

<g transform="translate(0.000000,21.000000) scale(0.100000,-0.100000)"
fill="#515151" stroke="none">
<path d="M41 204 c-1 -7 -10 -14 -21 -17 -19 -5 -21 -12 -18 -94 l3 -88 95 0
95 0 3 88 c2 76 1 88 -15 94 -10 4 -21 11 -25 17 -5 7 -8 7 -8 -1 0 -9 -17
-13 -49 -13 -30 0 -51 5 -54 13 -4 7 -6 8 -6 1z m139 -44 c0 -6 -33 -10 -80
-10 -47 0 -80 4 -80 10 0 6 33 10 80 10 47 0 80 -4 80 -10z m0 -85 l0 -55 -80
0 -80 0 0 55 0 55 80 0 80 0 0 -55z"/>
<path d="M111 86 c-15 -15 -29 -22 -40 -18 -14 5 -14 4 -2 -12 14 -16 16 -15
45 13 16 17 28 33 25 36 -3 3 -16 -6 -28 -19z"/>
</g>
</svg>
