<?xml version="1.0" standalone="no"?>
<!DOCTYPE svg PUBLIC "-//W3C//DTD SVG 20010904//EN"
 "http://www.w3.org/TR/2001/REC-SVG-20010904/DTD/svg10.dtd">
<svg version="1.0" xmlns="http://www.w3.org/2000/svg"
 width="20.000000pt" height="20.000000pt" viewBox="0 0 20.000000 20.000000"
 preserveAspectRatio="xMidYMid meet">

<g transform="translate(0.000000,20.000000) scale(0.100000,-0.100000)"
fill="#515151" stroke="none">
<path d="M70 193 c-8 -3 -23 -12 -32 -21 -12 -10 -18 -11 -18 -4 0 7 -4 12
-10 12 -5 0 -10 -11 -10 -25 0 -22 4 -25 33 -25 25 0 29 3 17 10 -13 9 -12 12
4 25 49 37 126 -3 126 -65 0 -41 -39 -80 -80 -80 -33 0 -80 38 -80 65 0 8 -5
15 -11 15 -16 0 0 -42 27 -70 34 -35 94 -34 131 3 37 37 38 96 3 132 -26 25
-73 39 -100 28z"/>
<path d="M90 122 c0 -30 33 -71 44 -54 3 5 -1 15 -9 22 -8 7 -15 23 -15 36 0
13 -4 24 -10 24 -5 0 -10 -13 -10 -28z"/>
</g>
</svg>
