<svg width="199" height="186" viewBox="0 0 199 186" fill="none" xmlns="http://www.w3.org/2000/svg">
<g clip-path="url(#clip0_817_1490)">
<path d="M183.955 142.296L192.882 143.69C195.904 140.033 197.987 135.695 198.951 131.052C192.423 136.392 182.496 133.554 174.58 136.469C172.119 137.397 169.897 138.867 168.081 140.77C166.265 142.673 164.901 144.959 164.089 147.461L159.727 152.151C163.676 153.714 167.917 154.402 172.158 154.169C176.399 153.935 180.539 152.786 184.293 150.8C186.388 149.665 188.331 148.27 190.077 146.65C186.954 144.684 183.955 142.296 183.955 142.296Z" fill="#F2F2F2"/>
<path d="M180.787 128.027L189.399 125.297C190.472 120.677 190.401 115.866 189.191 111.28C185.731 118.969 175.58 120.854 169.796 126.991C168.007 128.919 166.675 131.224 165.899 133.737C165.122 136.249 164.922 138.904 165.312 141.504L163.5 147.647C167.732 147.285 171.835 146.011 175.527 143.912C179.219 141.813 182.412 138.939 184.885 135.488C186.253 133.539 187.37 131.425 188.21 129.196C184.537 128.829 180.787 128.027 180.787 128.027Z" fill="#F2F2F2"/>
<path d="M199 154.993C199 155.039 198.991 155.084 198.974 155.127C198.956 155.17 198.93 155.208 198.898 155.241C198.865 155.273 198.826 155.299 198.784 155.317C198.741 155.334 198.696 155.343 198.65 155.343H0.350482C0.257529 155.343 0.168381 155.306 0.102653 155.24C0.0369252 155.175 0 155.086 0 154.993C0 154.9 0.0369252 154.811 0.102653 154.745C0.168381 154.679 0.257529 154.643 0.350482 154.643H198.65C198.696 154.642 198.741 154.651 198.784 154.669C198.826 154.687 198.865 154.712 198.898 154.745C198.93 154.777 198.956 154.816 198.974 154.859C198.991 154.901 199 154.947 199 154.993Z" fill="#CCCCCC"/>
<path d="M82.17 140.061C117.142 140.061 145.492 111.73 145.492 76.7806C145.492 41.8317 117.142 13.5 82.17 13.5C47.198 13.5 18.8477 41.8317 18.8477 76.7806C18.8477 111.73 47.198 140.061 82.17 140.061Z" fill="#E6E6E6"/>
<path d="M136.657 76.7799C136.663 85.2762 134.677 93.6558 130.858 101.247C127.039 108.837 121.493 115.428 114.665 120.491C114.208 120.832 113.743 121.165 113.275 121.488C104.144 127.831 93.2902 131.231 82.1702 131.231C71.0503 131.231 60.1964 127.831 51.0657 121.488C50.5974 121.165 50.1321 120.832 49.6756 120.491C42.8522 115.424 37.3097 108.832 33.491 101.242C29.6724 93.6525 27.6836 85.2751 27.6836 76.7799C27.6836 68.2847 29.6724 59.9073 33.491 52.3175C37.3097 44.7276 42.8522 38.1359 49.6756 33.0691C50.1321 32.7277 50.5974 32.3951 51.0657 32.0714C60.1964 25.7286 71.0503 22.3291 82.1702 22.3291C93.2902 22.3291 104.144 25.7286 113.275 32.0714C113.743 32.3951 114.208 32.7277 114.665 33.0691C121.493 38.1314 127.039 44.7223 130.858 52.3131C134.677 59.9039 136.663 68.2835 136.657 76.7799Z" fill="white"/>
<path d="M82.1727 126.522C109.662 126.522 131.947 104.252 131.947 76.7806C131.947 49.3091 109.662 27.0391 82.1727 27.0391C54.6832 27.0391 32.3984 49.3091 32.3984 76.7806C32.3984 104.252 54.6832 126.522 82.1727 126.522Z" fill="#E84E38"/>
<path opacity="0.2" d="M82.3 27.1777C81.5454 27.1777 80.7955 27.1975 80.0492 27.2307C92.6293 28.3354 104.319 34.1777 112.75 43.5739C121.18 52.9702 125.722 65.2177 125.454 77.8352C125.186 90.4527 120.128 102.497 111.306 111.527C102.484 120.557 90.5572 125.899 77.9414 126.469C79.378 126.593 80.831 126.661 82.3 126.661C95.5009 126.661 108.161 121.42 117.496 112.092C126.83 102.763 132.074 90.1115 132.074 76.9193C132.074 63.727 126.83 51.075 117.496 41.7467C108.161 32.4184 95.5009 27.1777 82.3 27.1777V27.1777Z" fill="black"/>
<path d="M82.3191 23.5068C81.8897 23.5076 81.4781 23.6784 81.1745 23.9818C80.8709 24.2852 80.7 24.6965 80.6992 25.1256V32.1895C80.6992 32.6189 80.8699 33.0306 81.1737 33.3342C81.4775 33.6378 81.8895 33.8083 82.3191 33.8083C82.7487 33.8083 83.1607 33.6378 83.4645 33.3342C83.7683 33.0306 83.939 32.6189 83.939 32.1895V25.1256C83.9382 24.6965 83.7673 24.2852 83.4637 23.9818C83.1601 23.6784 82.7485 23.5076 82.3191 23.5068Z" fill="white"/>
<path d="M114.667 33.0696C114.211 32.7281 113.746 32.3955 113.277 32.0718C112.996 32.0535 112.715 32.1087 112.462 32.2321C112.209 32.3555 111.993 32.5427 111.834 32.7752L107.855 38.6118C107.613 38.9666 107.523 39.4028 107.603 39.8245C107.683 40.2462 107.927 40.6188 108.282 40.8604C108.637 41.102 109.074 41.1928 109.496 41.1128C109.918 41.0327 110.291 40.7884 110.532 40.4337L114.511 34.5971C114.663 34.3757 114.756 34.12 114.784 33.8532C114.811 33.5864 114.771 33.317 114.667 33.0696Z" fill="white"/>
<path d="M132.742 59.683C132.662 59.4862 132.544 59.3071 132.395 59.1559C132.245 59.0047 132.068 58.8844 131.872 58.8019C131.676 58.7193 131.466 58.6762 131.253 58.6748C131.041 58.6735 130.83 58.714 130.633 58.7941L124.083 61.4519C123.685 61.6138 123.368 61.9267 123.201 62.3221C123.035 62.7174 123.032 63.1627 123.193 63.5602C123.355 63.9577 123.668 64.2748 124.063 64.4419C124.459 64.6089 124.904 64.6122 125.302 64.4511L131.852 61.7933C132.25 61.6307 132.567 61.3173 132.733 60.9217C132.9 60.5262 132.903 60.0808 132.742 59.683Z" fill="white"/>
<path d="M56.4876 38.6118L52.5086 32.7752C52.35 32.5427 52.1335 32.3555 51.8804 32.2321C51.6273 32.1087 51.3464 32.0535 51.0654 32.0718C50.5971 32.3955 50.1318 32.7281 49.6753 33.0696C49.5718 33.317 49.5318 33.5864 49.5591 33.8532C49.5864 34.12 49.68 34.3757 49.8314 34.5971L53.8104 40.4337C54.0521 40.7884 54.425 41.0327 54.847 41.1128C55.269 41.1928 55.7055 41.102 56.0605 40.8604C56.4155 40.6188 56.66 40.2462 56.7401 39.8245C56.8201 39.4028 56.7293 38.9666 56.4876 38.6118Z" fill="white"/>
<path d="M40.2558 61.4515L33.7056 58.7937C33.3077 58.6322 32.8618 58.6353 32.4662 58.8023C32.0705 58.9693 31.7574 59.2865 31.5957 59.6842C31.434 60.0818 31.437 60.5274 31.604 60.9229C31.7711 61.3183 32.0884 61.6313 32.4863 61.7929L39.0365 64.4507C39.4344 64.6118 39.88 64.6085 40.2755 64.4415C40.6709 64.2744 40.9838 63.9573 41.1454 63.5598C41.307 63.1623 41.3041 62.717 41.1373 62.3217C40.9705 61.9263 40.6534 61.6134 40.2558 61.4515V61.4515Z" fill="white"/>
<path d="M82.3191 119.752C81.8897 119.753 81.4781 119.923 81.1745 120.227C80.8709 120.53 80.7 120.942 80.6992 121.371V128.435C80.6992 128.864 80.8699 129.276 81.1737 129.579C81.4775 129.883 81.8895 130.053 82.3191 130.053C82.7487 130.053 83.1607 129.883 83.4645 129.579C83.7683 129.276 83.939 128.864 83.939 128.435V121.371C83.9382 120.942 83.7673 120.53 83.4637 120.227C83.1601 119.923 82.7485 119.753 82.3191 119.752Z" fill="white"/>
<path d="M114.511 118.963L110.532 113.126C110.413 112.951 110.259 112.8 110.082 112.684C109.904 112.567 109.705 112.487 109.496 112.447C109.287 112.408 109.072 112.41 108.864 112.453C108.656 112.496 108.458 112.58 108.282 112.7C108.106 112.819 107.956 112.972 107.839 113.15C107.723 113.328 107.642 113.527 107.603 113.736C107.563 113.944 107.565 114.159 107.608 114.367C107.651 114.575 107.735 114.773 107.855 114.948L111.834 120.785C111.993 121.017 112.209 121.205 112.462 121.328C112.715 121.451 112.996 121.507 113.277 121.488C113.746 121.165 114.211 120.832 114.667 120.491C114.771 120.243 114.811 119.974 114.784 119.707C114.756 119.44 114.663 119.184 114.511 118.963Z" fill="white"/>
<path d="M131.853 91.7679L125.303 89.1101C124.905 88.9486 124.46 88.9517 124.064 89.1187C123.668 89.2857 123.355 89.6029 123.193 90.0006C123.032 90.3983 123.035 90.8438 123.202 91.2393C123.369 91.6347 123.686 91.9477 124.084 92.1093L130.634 94.7671C131.032 94.9282 131.478 94.9249 131.873 94.7579C132.269 94.5908 132.581 94.2737 132.743 93.8762C132.905 93.4787 132.902 93.0334 132.735 92.6381C132.568 92.2427 132.251 91.9298 131.853 91.7679V91.7679Z" fill="white"/>
<path d="M56.0605 112.7C55.7054 112.459 55.269 112.368 54.847 112.448C54.4251 112.528 54.0522 112.773 53.8104 113.127L49.8314 118.964C49.68 119.185 49.5864 119.441 49.5591 119.708C49.5318 119.975 49.5718 120.244 49.6753 120.491C50.1318 120.833 50.5971 121.165 51.0654 121.489C51.3464 121.507 51.6273 121.452 51.8804 121.329C52.1335 121.205 52.35 121.018 52.5086 120.786L56.4876 114.949C56.6073 114.773 56.6912 114.576 56.7345 114.368C56.7779 114.16 56.7798 113.945 56.7401 113.736C56.7004 113.528 56.62 113.329 56.5034 113.151C56.3868 112.973 56.2363 112.82 56.0605 112.7Z" fill="white"/>
<path d="M41.1481 89.9984C41.0681 89.8016 40.9501 89.6225 40.8008 89.4714C40.6515 89.3202 40.4739 89.1999 40.278 89.1173C40.0822 89.0348 39.872 88.9916 39.6594 88.9903C39.4469 88.9889 39.2362 89.0295 39.0393 89.1095L32.4891 91.7673C32.0915 91.9292 31.7745 92.2422 31.6077 92.6375C31.4409 93.0328 31.438 93.4782 31.5996 93.8756C31.7612 94.2731 32.0741 94.5902 32.4695 94.7573C32.8649 94.9243 33.3106 94.9277 33.7085 94.7665L40.2586 92.1088C40.6561 91.9461 40.9728 91.6327 41.1395 91.2372C41.3062 90.8416 41.3093 90.3962 41.1481 89.9984Z" fill="white"/>
<path d="M84.4201 75.9768C84.5697 76.8616 84.3619 77.7696 83.8424 78.5016C83.3229 79.2336 82.5341 79.7297 81.649 79.8812L52.9042 84.7674C52.4657 84.842 52.0168 84.8295 51.5832 84.7307C51.1495 84.6318 50.7396 84.4486 50.3768 84.1914C50.014 83.9343 49.7054 83.6083 49.4687 83.2319C49.232 82.8556 49.0718 82.4364 48.9972 81.9982C48.9226 81.56 48.9351 81.1114 49.034 80.678C49.1329 80.2446 49.3162 79.835 49.5735 79.4724C49.8309 79.1099 50.1571 78.8015 50.5337 78.5649C50.9103 78.3284 51.3298 78.1683 51.7683 78.0937L80.5131 73.2075C81.3985 73.058 82.3072 73.2656 83.0396 73.7848C83.7721 74.304 84.2685 75.0923 84.4201 75.9768Z" fill="#3F3D56"/>
<path d="M114.672 107.803C114.259 108.218 113.698 108.452 113.113 108.454C112.527 108.457 111.964 108.227 111.548 107.815L80.6048 77.1344C80.1896 76.7219 79.9552 76.1616 79.9531 75.5765C79.9511 74.9914 80.1816 74.4294 80.594 74.014C81.0063 73.5987 81.5668 73.3639 82.1523 73.3613C82.7378 73.3588 83.3004 73.5886 83.7164 74.0003L114.66 104.681C115.075 105.093 115.31 105.654 115.312 106.239C115.314 106.824 115.084 107.387 114.672 107.803Z" fill="#3F3D56"/>
<path d="M82.1725 80.6066C84.2871 80.6066 86.0013 78.8936 86.0013 76.7804C86.0013 74.6672 84.2871 72.9541 82.1725 72.9541C80.058 72.9541 78.3438 74.6672 78.3438 76.7804C78.3438 78.8936 80.058 80.6066 82.1725 80.6066Z" fill="#CCCCCC"/>
<path d="M55.7984 10.432C49.9213 19.6658 40.954 25.7938 29.8952 29.8195C29.6767 29.9831 29.4281 30.102 29.1636 30.1695C28.899 30.2371 28.6238 30.2519 28.3535 30.2131C28.0833 30.1744 27.8233 30.0828 27.5885 29.9436C27.3536 29.8044 27.1485 29.6204 26.9849 29.402C20.9778 21.3867 22.3342 9.93128 30.2623 3.80666C32.179 2.32851 34.3704 1.24557 36.7094 0.620722C39.0483 -0.00413122 41.4882 -0.158456 43.8873 0.166712C46.2864 0.49188 48.597 1.29006 50.6849 2.51491C52.7728 3.73977 54.5965 5.3669 56.05 7.30184L56.2162 7.52353C56.3798 7.74192 56.4989 7.99037 56.5664 8.25472C56.634 8.51907 56.6488 8.79413 56.61 9.0642C56.5712 9.33428 56.4796 9.59407 56.3403 9.82875C56.2011 10.0634 56.0169 10.2684 55.7984 10.432Z" fill="#E6E6E6"/>
<path d="M108.292 7.30184C109.746 5.3669 111.569 3.73976 113.657 2.51491C115.745 1.29006 118.056 0.491881 120.455 0.166713C122.854 -0.158454 125.294 -0.00413445 127.633 0.620718C129.972 1.24557 132.163 2.32851 134.08 3.80666C142.008 9.93127 143.364 21.3867 137.357 29.402C137.194 29.6204 136.988 29.8044 136.754 29.9436C136.519 30.0828 136.259 30.1743 135.989 30.2131C135.718 30.2519 135.443 30.2371 135.179 30.1695C134.914 30.102 134.665 29.9831 134.447 29.8195C124.181 25.8916 115.762 19.0943 108.544 10.4319C108.102 10.1016 107.81 9.60963 107.732 9.06419C107.654 8.51876 107.795 7.96456 108.126 7.52352L108.292 7.30184Z" fill="#E6E6E6"/>
<path d="M105.715 131.605C105.34 131.815 105.064 132.165 104.948 132.578C104.831 132.991 104.883 133.433 105.092 133.808L114.441 150.503C114.651 150.877 115.001 151.153 115.414 151.27C115.827 151.387 116.27 151.334 116.645 151.125C117.02 150.915 117.296 150.565 117.413 150.152C117.53 149.739 117.478 149.296 117.268 148.922L107.919 132.227C107.709 131.853 107.359 131.577 106.945 131.46C106.532 131.344 106.09 131.396 105.715 131.605Z" fill="#E6E6E6"/>
<path d="M56.422 132.226L47.0733 148.921C46.8636 149.296 46.8114 149.738 46.9282 150.151C47.045 150.565 47.3212 150.914 47.696 151.124C48.0709 151.334 48.5137 151.386 48.9271 151.269C49.3405 151.153 49.6906 150.877 49.9005 150.502L59.2492 133.807C59.3531 133.622 59.4195 133.417 59.4444 133.206C59.4694 132.995 59.4525 132.781 59.3947 132.577C59.3369 132.372 59.2394 132.181 59.1076 132.014C58.9758 131.847 58.8125 131.707 58.6268 131.604C58.4411 131.5 58.2368 131.434 58.0255 131.409C57.8142 131.384 57.6001 131.401 57.3954 131.458C57.1906 131.516 56.9993 131.614 56.8323 131.745C56.6653 131.877 56.5258 132.041 56.422 132.226H56.422Z" fill="#E6E6E6"/>
<path d="M116.335 154.778C119.1 154.778 121.342 152.537 121.342 149.774C121.342 147.011 119.1 144.771 116.335 144.771C113.57 144.771 111.328 147.011 111.328 149.774C111.328 152.537 113.57 154.778 116.335 154.778Z" fill="#E6E6E6"/>
<path d="M119.87 26.7445C122.635 26.7445 124.877 24.5043 124.877 21.7409C124.877 18.9775 122.635 16.7373 119.87 16.7373C117.105 16.7373 114.863 18.9775 114.863 21.7409C114.863 24.5043 117.105 26.7445 119.87 26.7445Z" fill="#E6E6E6"/>
<path d="M81.878 14.971C84.6432 14.971 86.8849 12.7309 86.8849 9.96745C86.8849 7.20405 84.6432 4.96387 81.878 4.96387C79.1128 4.96387 76.8711 7.20405 76.8711 9.96745C76.8711 12.7309 79.1128 14.971 81.878 14.971Z" fill="#E6E6E6"/>
<path d="M45.6514 26.1556C48.4166 26.1556 50.6583 23.9154 50.6583 21.152C50.6583 18.3886 48.4166 16.1484 45.6514 16.1484C42.8862 16.1484 40.6445 18.3886 40.6445 21.152C40.6445 23.9154 42.8862 26.1556 45.6514 26.1556Z" fill="#E6E6E6"/>
<path d="M48.8897 154.778C51.6549 154.778 53.8966 152.537 53.8966 149.774C53.8966 147.011 51.6549 144.771 48.8897 144.771C46.1245 144.771 43.8828 147.011 43.8828 149.774C43.8828 152.537 46.1245 154.778 48.8897 154.778Z" fill="#E6E6E6"/>
<path d="M112.409 104.989C112.607 105.298 112.869 105.56 113.179 105.756C113.488 105.952 113.837 106.079 114.201 106.126C114.565 106.173 114.934 106.139 115.284 106.028C115.633 105.917 115.954 105.731 116.223 105.482L124.08 109.689L123.659 105.08L116.262 101.792C115.815 101.367 115.227 101.121 114.61 101.1C113.993 101.079 113.39 101.286 112.915 101.68C112.44 102.074 112.126 102.629 112.033 103.238C111.94 103.848 112.074 104.471 112.409 104.989H112.409Z" fill="#FFB7B7"/>
<path d="M118.133 106.598L121.212 102.351L136.044 109.358L154.501 105.897C155.413 105.726 156.352 105.757 157.25 105.99C158.149 106.222 158.985 106.649 159.7 107.241C160.415 107.833 160.991 108.574 161.387 109.413C161.782 110.253 161.989 111.168 161.99 112.096C161.992 113.772 161.328 115.379 160.144 116.566C158.961 117.753 157.355 118.422 155.678 118.427L134.527 118.466L118.133 106.598Z" fill="#3F3D56"/>
<path d="M113.393 179.953L110.277 178.464L114.556 165.452L119.154 167.65L113.393 179.953Z" fill="#FFB7B7"/>
<path d="M134.273 177.854C134.047 177.996 133.82 178.136 133.591 178.275C133.136 178.554 132.676 178.828 132.216 179.098C131.985 179.233 131.752 179.368 131.521 179.501V179.508L131.507 179.51L131.502 179.512L131.15 179.599L130.644 178.264L130.411 177.649L130.081 176.777L129.477 175.184L126.297 166.792L131.241 165.573L131.427 166.33H131.429L131.521 166.705L133.248 173.707L133.6 175.138L133.612 175.181L133.825 176.037L134.008 176.777L134.211 177.605L134.273 177.854Z" fill="#FFB7B7"/>
<path d="M163.772 148.385C163.459 148.888 163.138 149.389 162.816 149.885C162.216 150.809 161.601 151.719 160.969 152.615C160.969 152.617 160.967 152.617 160.965 152.62C160.596 152.961 160.189 153.258 159.752 153.505C159.734 153.518 159.713 153.527 159.695 153.539C159.373 153.717 159.03 153.854 158.674 153.948C158.546 153.98 158.416 154.012 158.287 154.044C157.825 154.154 157.368 154.248 156.912 154.33C156.102 154.474 155.302 154.577 154.505 154.641C154.441 154.648 154.377 154.652 154.313 154.657C151.039 154.897 147.852 154.511 144.525 153.877C142.882 153.566 141.205 153.194 139.468 152.807C138.901 152.679 138.331 152.553 137.754 152.428C137.711 152.418 137.665 152.407 137.619 152.398C136.796 152.217 135.958 152.039 135.1 151.863C134.02 151.641 132.906 151.426 131.748 151.223L131.831 152.853C131.899 154.107 132.16 155.343 132.604 156.518C133.098 157.963 133.489 159.107 132.663 161.487L132.265 162.639C132.472 163.212 132.543 163.824 132.472 164.428C132.402 165.032 132.193 165.612 131.86 166.122L131.78 166.243L135.1 174.637L135.315 175.181H133.615L131.524 175.183H127.98L122.866 164.93L122.621 164.441V164.416L123.15 144.713C123.157 144.539 123.17 144.363 123.193 144.189C123.286 143.399 123.536 142.636 123.928 141.943C124.319 141.251 124.845 140.643 125.474 140.156C126.077 139.685 126.768 139.338 127.506 139.137C128.244 138.935 129.015 138.882 129.774 138.98L131.524 139.207L135.1 139.669L137.619 139.996L137.67 140.002L145.099 140.963L145.632 138.791L145.731 138.754L148.858 137.608L159.676 133.646L159.704 133.637L160.415 133.376L160.5 133.513C160.525 133.554 160.55 133.595 160.573 133.637C161.277 134.897 161.849 136.225 162.282 137.602C163.011 139.85 163.611 142.138 164.079 144.454C164.099 144.555 164.117 144.646 164.133 144.729L164.14 144.754C164.147 144.793 164.152 144.818 164.154 144.825C164.403 145.863 164.23 147.13 163.772 148.385Z" fill="#2F2E41"/>
<path d="M164.228 141.124C164.194 140.977 164.151 140.829 164.105 140.685C163.742 139.594 163.318 138.523 162.837 137.479C162.297 136.29 161.65 135.016 160.879 133.638C160.506 132.97 160.105 132.276 159.675 131.554C159.46 131.193 159.237 130.825 159.005 130.45C158.996 130.433 158.986 130.416 158.975 130.4L158.909 130.29L148.205 131.721L144.219 132.254L143.981 134.239L143.924 134.731C143.922 134.731 143.922 134.731 143.924 134.733L143.764 136.073V136.075L143.551 137.845L143.533 137.843L137.618 137.077L131.523 136.288L128.249 135.865C127.49 135.766 126.719 135.819 125.981 136.021C125.243 136.222 124.552 136.569 123.949 137.04C123.32 137.527 122.795 138.135 122.403 138.828C122.011 139.52 121.761 140.284 121.668 141.073C121.648 141.234 121.634 141.398 121.627 141.561L118.538 148.875C116.69 153.25 115.513 157.878 115.046 162.604L112.781 169.841L113.104 169.87L117.904 170.316L119.172 170.435L121.963 166.363C122.281 165.899 122.583 165.421 122.865 164.931C123.328 164.132 123.74 163.304 124.098 162.453L130.136 148.093C130.603 148.173 131.065 148.249 131.523 148.322C133.639 148.665 135.671 148.945 137.618 149.161C143.949 149.868 149.431 149.922 154.312 149.323C155.682 149.156 157.007 148.937 158.286 148.665C158.755 148.567 159.218 148.461 159.675 148.347C159.783 148.322 159.888 148.297 159.993 148.269C160.939 148.026 161.808 147.549 162.522 146.882C163.235 146.216 163.77 145.382 164.077 144.455C164.444 143.382 164.497 142.226 164.228 141.124Z" fill="#2F2E41"/>
<path d="M114.385 177.827L111.014 176.213L110.486 175.959L109.642 178.031L103.748 179.327C103.456 179.391 103.193 179.546 102.996 179.77C102.799 179.994 102.679 180.276 102.654 180.573C102.628 180.87 102.698 181.167 102.854 181.421C103.009 181.676 103.242 181.874 103.519 181.986L109.278 184.335L111.106 182.691L110.657 184.897L112.827 185.782L115.204 178.22L114.385 177.827Z" fill="#2F2E41"/>
<path d="M135.098 174.637L135.313 175.181H135.098V174.637Z" fill="#2F2E41"/>
<path d="M133.926 175.297L130.395 176.52L129.84 176.712L130.699 178.777L127.424 183.843C127.262 184.093 127.184 184.389 127.202 184.686C127.22 184.984 127.332 185.268 127.523 185.497C127.714 185.726 127.974 185.888 128.263 185.96C128.553 186.031 128.858 186.008 129.134 185.893L134.879 183.513L135.021 181.059L136.256 182.942L138.42 182.046L134.785 175.001L133.926 175.297Z" fill="#2F2E41"/>
<path d="M163.347 144.436C163.137 144.436 162.931 144.385 162.745 144.287L144.109 134.556L143.894 133.675L143.488 130.887L143.494 130.861L145.266 122.695C145.234 122.625 145.166 122.51 145.089 122.38C144.298 121.041 141.89 116.963 146.486 111.349L154.554 101.948L161.479 101.65L161.558 101.75C163.41 104.072 164.658 106.816 165.193 109.737C165.728 112.658 165.533 115.666 164.624 118.494L163.903 131.508L164.676 134.136C165.129 135.681 165.054 137.332 164.464 138.829L164.641 143.085C164.648 143.259 164.62 143.433 164.558 143.597C164.496 143.76 164.402 143.909 164.281 144.035C164.16 144.161 164.015 144.262 163.855 144.331C163.694 144.4 163.522 144.436 163.347 144.436L163.347 144.436Z" fill="#3F3D56"/>
<path d="M147.182 155.169C147.497 154.983 147.768 154.73 147.976 154.427C148.183 154.125 148.321 153.781 148.381 153.419C148.44 153.058 148.42 152.687 148.321 152.335C148.222 151.982 148.047 151.655 147.808 151.377L152.288 143.677L147.664 143.937L144.118 151.21C143.678 151.642 143.411 152.221 143.369 152.836C143.327 153.452 143.512 154.061 143.89 154.549C144.268 155.037 144.811 155.37 145.418 155.484C146.025 155.599 146.652 155.486 147.182 155.169L147.182 155.169Z" fill="#FFB7B7"/>
<path d="M148.988 149.508L144.848 146.285L152.371 131.716L149.552 113.162C149.413 112.245 149.477 111.308 149.741 110.419C150.004 109.529 150.46 108.709 151.077 108.015C151.694 107.322 152.455 106.773 153.308 106.407C154.161 106.04 155.084 105.866 156.012 105.897C157.688 105.954 159.272 106.673 160.418 107.896C161.564 109.119 162.177 110.747 162.124 112.421L161.427 133.547L148.988 149.508Z" fill="#3F3D56"/>
<path d="M150.113 98.042V91.1939C150.112 88.7602 151.078 86.4256 152.799 84.7036C154.519 82.9816 156.854 82.0133 159.29 82.0117C161.725 82.0102 164.061 82.9754 165.784 84.6952C167.507 86.415 168.476 88.7484 168.478 91.1821V91.1939C170.096 94.5641 169.084 96.1664 168.478 98.042C168.477 98.3686 168.347 98.6817 168.116 98.9126C167.885 99.1436 167.572 99.2735 167.245 99.2741H151.347C151.02 99.2737 150.706 99.1438 150.475 98.9128C150.244 98.6819 150.114 98.3687 150.113 98.042Z" fill="#2F2E41"/>
<path d="M156.283 98.8294C160.079 98.8294 163.157 95.7541 163.157 91.9606C163.157 88.1671 160.079 85.0918 156.283 85.0918C152.487 85.0918 149.41 88.1671 149.41 91.9606C149.41 95.7541 152.487 98.8294 156.283 98.8294Z" fill="#FFB7B7"/>
<path d="M163.474 93.7615C163.412 93.7517 163.35 93.7386 163.288 93.7287C162.215 93.5387 161.143 93.3519 160.074 93.1586L159.976 90.7373L158.681 92.9063C155.727 93.886 152.963 93.3323 150.363 92.1101C149.505 91.7033 148.673 91.2448 147.871 90.7373C148.09 89.3981 148.605 88.1247 149.379 87.0101C150.153 85.8956 151.167 84.9681 152.347 84.2956C152.445 84.2399 152.54 84.1908 152.638 84.1416C152.639 84.1416 152.639 84.1415 152.64 84.1413C152.64 84.1412 152.64 84.1409 152.641 84.1406C152.641 84.1403 152.641 84.14 152.641 84.1396C152.642 84.1392 152.642 84.1387 152.642 84.1383C152.809 84.0597 152.979 83.9843 153.15 83.9155C154.485 83.3942 155.94 83.2622 157.347 83.5348C158.754 83.8074 160.054 84.4734 161.097 85.4555C163.196 87.4575 164.14 90.7635 163.474 93.7615Z" fill="#2F2E41"/>
</g>
<defs>
<clipPath id="clip0_817_1490">
<rect width="199" height="186" fill="white"/>
</clipPath>
</defs>
</svg>
